<svg class="border shadow-md" viewBox="0 0 897.9911111111111 505.12" style="width: 897.991px; height: 505.12px;" xmlns="http://www.w3.org/2000/svg" preserveAspectRatio="none"><rect class="bg" id="bg" x="0" y="0" width="897.9911111111111" height="505.12" fill="#ffffff"/><g transform="rotate(0 448.99555555555554 252.56)"><path d="M -549.00 -33.14 S -284.50 -84.14&#10;            0.00 -33.14 264.50 -64.71&#10;            549.00 -33.14 661.99 -78.14&#10;            1097.99 -33.14 1313.99 -64.71&#10;            1646.99 -33.14 h 110 V 705.12 H -549.00 Z" fill="#88CED0" id="-1"/><path d="M -549.00 30.00 S -525.00 -1.57&#10;            0.00 30.00 5.00 -1.57&#10;            549.00 30.00 713.99 -1.57&#10;            1097.99 30.00 1362.49 -24.00&#10;            1646.99 30.00 h 110 V 705.12 H -549.00 Z" fill="#95d3d5" id="0"/><path id="1" d="M -549.00 93.14 S -284.50 55.14&#10;            0.00 93.14 264.50 32.14&#10;            549.00 93.14 813.49 37.14&#10;            1097.99 93.14 1362.49 61.57&#10;            1646.99 93.14 h 110 V 705.12 H -549.00 Z" fill="#a2d8da"/><path id="2" d="M -549.00 156.28 S -284.50 96.28&#10;            0.00 156.28 264.50 124.71&#10;            549.00 156.28 702.99 111.28&#10;            1097.99 156.28 1292.99 113.28&#10;            1646.99 156.28 h 110 V 705.12 H -549.00 Z" fill="#afdddf"/><path id="3" d="M -549.00 219.42 S -284.50 187.42&#10;            0.00 219.42 264.50 187.85&#10;            549.00 219.42 575.99 187.85&#10;            1097.99 219.42 1362.49 187.85&#10;            1646.99 219.42 h 110 V 705.12 H -549.00 Z" fill="#bce2e4"/><path id="4" d="M -549.00 282.56 S -284.50 236.56&#10;            0.00 282.56 264.50 250.99&#10;            549.00 282.56 662.99 250.99&#10;            1097.99 282.56 1362.49 238.56&#10;            1646.99 282.56 h 110 V 705.12 H -549.00 Z" fill="#c9e7e9"/><path id="5" d="M -549.00 345.70 S -471.00 314.13&#10;            0.00 345.70 264.50 297.70&#10;            549.00 345.70 813.49 291.70&#10;            1097.99 345.70 1362.49 305.70&#10;            1646.99 345.70 h 110 V 705.12 H -549.00 Z" fill="#d6ecee"/><path id="6" d="M -549.00 408.84 S -284.50 365.84&#10;            0.00 408.84 264.50 377.27&#10;            549.00 408.84 731.99 377.27&#10;            1097.99 408.84 1215.99 376.84&#10;            1646.99 408.84 h 110 V 705.12 H -549.00 Z" fill="#e3f1f3"/><path id="7" d="M -549.00 471.98 S -284.50 420.98&#10;            0.00 471.98 156.00 412.98&#10;            549.00 471.98 813.49 440.41&#10;            1097.99 471.98 1362.49 440.41&#10;            1646.99 471.98 h 110 V 705.12 H -549.00 Z" fill="#f0f6f8"/></g></svg>