<svg xmlns="http://www.w3.org/2000/svg" version="1.1" xmlns:xlink="http://www.w3.org/1999/xlink" xmlns:svgjs="http://svgjs.dev/svgjs" viewBox="0 0 800 800"><defs><filter id="uuunion-blur" x="-100%" y="-100%" width="400%" height="400%" color-interpolation-filters="sRGB">
        <feGaussianBlur in="SourceGraphic" stdDeviation="0 0" result="blur"></feGaussianBlur>
        <feDropShadow stdDeviation="17.230769230769234" in="blur" dx="14" dy="14" flood-color="hsl(182, 42%, 66%)" flood-opacity="0.89" x="0%" y="0%" width="100%" height="100%"></feDropShadow>
      </filter><filter id="uuunion-blur2" x="-100%" y="-100%" width="400%" height="400%" color-interpolation-filters="sRGB">
        <feGaussianBlur in="SourceGraphic" stdDeviation="0 0" result="blur"></feGaussianBlur>
        <feDropShadow stdDeviation="17.230769230769234" in="blur" dx="-14" dy="-14" flood-color="hsl(182, 42%, 66%)" flood-opacity="0.89" x="0%" y="0%" width="100%" height="100%"></feDropShadow>
      </filter><linearGradient gradientTransform="rotate(187, 0.5, 0.5)" x1="50%" y1="0%" x2="50%" y2="100%" id="uuunion-grad"><stop stop-color="#03989e" offset="10%"></stop><stop stop-color="hsl(182, 42%, 66%)" offset="90%"></stop></linearGradient><linearGradient gradientTransform="rotate(135, 0.5, 0.5)" x1="50%" y1="0%" x2="50%" y2="100%" id="uuunion-grad2"><stop stop-color="#03989e" offset="25%"></stop><stop stop-color="hsl(182, 42%, 66%)" offset="100%"></stop></linearGradient><linearGradient gradientTransform="rotate(333, 0.5, 0.5)" x1="50%" y1="0%" x2="50%" y2="100%" id="uuunion-grad3"><stop stop-color="#03989e" offset="0%"></stop><stop stop-color="hsl(182, 42%, 66%)" offset="75%"></stop></linearGradient></defs><path d="M-76.82 -79.78Q-62.6 -77.88 -48.38 -76.16 -34.16 -74.76 -19.95 -73.78 -5.73 -73.33 8.48 -73.42 22.7 -74.05 36.92 -75.18 51.13 -76.71 65.35 -78.5 79.57 -80.42 93.79 -82.31 108 -84 122.22 -85.36 136.44 -86.28 150.66 -86.68 164.88 -86.53 179.09 -85.84 193.31 -84.66 207.53 -83.1 221.75 -81.28 235.97 -79.36 250.18 -77.49 264.4 -75.82 278.62 -74.5 292.84 -73.64 307.05 -73.3 321.27 -73.51 335.49 -74.26 349.71 -75.48 363.93 -77.08 378.14 -78.92 392.36 -80.84 406.58 -82.7 420.8 -84.33 435.01 -85.6 449.23 -86.41 463.45 -86.69 477.67 -86.42 491.89 -85.62 506.1 -84.35 520.32 -82.72 534.54 -80.86 548.76 -78.94 562.98 -77.1 577.19 -75.5 591.41 -74.27 605.63 -73.52 619.85 -73.3 634.06 -73.63 648.28 -74.49 662.5 -75.8 676.72 -77.47 690.94 -79.33 705.15 -81.26 719.37 -83.08 733.59 -84.64 747.81 -85.82 762.02 -86.52 776.24 -86.68 790.46 -86.29 804.68 -85.38 818.9 -84.02 833.11 -82.33 836.32 -67.54 842.76 -52.76 851.95 -37.97 863.21 -23.19 875.71 -8.41 888.53 6.37 900.72 21.15 911.38 35.94 919.71 50.72 925.11 65.51 927.18 80.29 925.76 95.08 920.95 109.86 913.12 124.65 902.84 139.43 890.87 154.21 878.1 169 865.46 183.78 853.9 198.57 844.27 213.35 837.28 228.14 833.45 242.92 833.06 257.71 836.14 272.49 842.46 287.28 851.55 302.06 862.75 316.84 875.22 331.63 888.04 346.41 900.27 361.2 911 375.98 919.44 390.77 924.97 405.55 927.16 420.34 925.88 435.12 921.2 449.91 913.47 464.69 903.27 479.47 891.35 494.26 878.59 509.04 865.93 523.83 854.32 538.61 844.6 553.4 837.5 568.18 833.54 582.97 833.01 597.75 835.96 612.53 842.16 627.32 851.16 642.1 862.29 656.89 874.73 671.67 887.56 686.46 899.83 701.24 910.63 716.03 919.17 730.81 924.81 745.6 927.14 760.38 925.99 775.16 921.44 789.95 913.82 804.73 903.7 819.52 891.83 834.3 879.08 849.09 866.41 863.87 851.63 852.19 836.86 842.81 822.09 836.5 807.31 833.78 792.54 834.88 777.77 839.72 762.99 847.87 748.22 858.69 733.45 871.26 718.67 884.56 703.9 897.48 689.13 908.95 674.35 918.03 659.58 923.97 644.81 926.27 630.03 924.75 615.26 919.54 600.49 911.05 585.71 900 570.94 887.29 556.17 873.98 541.39 861.17 526.62 849.92 511.85 841.15 497.07 835.59 482.3 833.7 467.53 835.63 452.75 841.23 437.98 850.04 423.21 861.32 408.43 874.14 393.66 887.45 378.89 900.14 364.11 911.17 349.34 919.62 334.57 924.79 319.79 926.27 305.02 923.92 290.25 917.94 275.47 908.83 260.7 897.33 245.93 884.4 231.16 871.11 216.38 858.55 201.61 847.76 186.84 839.64 172.06 834.85 157.29 833.79 142.52 836.55 127.74 842.9 112.97 852.32 98.2 864.02 83.42 877.04 68.65 890.31 53.88 902.72 39.1 913.26 24.33 921.05 9.56 925.44 -5.21 926.08 -19.98 922.91 -34.75 916.2 -49.53 906.49 -64.3 894.59 -79.07 881.49 -79.93 866.47 -80.8 851.45 -81.6 836.43 -82.29 821.41 -82.8 806.39 -83.11 791.37 -83.19 776.35 -83.03 761.33 -82.65 746.31 -82.07 731.29 -81.34 716.27 -80.51 701.25 -79.64 686.23 -78.79 671.21 -78.04 656.19 -77.43 641.17 -77.01 626.15 -76.81 611.13 -76.85 596.11 -77.11 581.09 -77.6 566.07 -78.25 551.05 -79.04 536.03 -79.9 521.01 -80.76 505.99 -81.57 490.97 -82.26 475.95 -82.79 460.93 -83.11 445.91 -83.19 430.89 -83.04 415.87 -82.67 400.85 -82.1 385.83 -81.37 370.81 -80.54 355.79 -79.67 340.77 -78.83 325.75 -78.07 310.73 -77.45 295.71 -77.02 280.69 -76.81 265.67 -76.84 250.65 -77.1 235.63 -77.57 220.61 -78.23 205.59 -79.01 190.57 -79.87 175.55 -80.73 160.53 -81.54 145.51 -82.24 130.49 -82.77 115.47 -83.1 100.45 -83.19 85.43 -83.05 70.41 -82.69 55.39 -82.12 40.37 -81.4 25.35 -80.57 10.33 -79.7 -4.68 -78.86 -19.7 -78.09 -34.72 -77.47 -49.74 -77.03 -64.76 -76.82 -79.78" fill="url(#uuunion-grad)"></path><path d="M-76.82 -79.78Q-77.03 -64.76 -77.47 -49.74 -78.09 -34.72 -78.86 -19.7 -79.7 -4.68 -80.57 10.33 -81.4 25.35 -82.12 40.37 -82.69 55.39 -83.05 70.41 -83.19 85.43 -83.1 100.45 -82.77 115.47 -82.24 130.49 -81.54 145.51 -80.73 160.53 -79.87 175.55 -79.01 190.57 -78.23 205.59 -77.57 220.61 -77.1 235.63 -76.84 250.65 -76.81 265.67 -77.02 280.69 -77.45 295.71 -78.07 310.73 -78.83 325.75 -79.67 340.77 -80.54 355.79 -81.37 370.81 -82.1 385.83 -82.67 400.85 -72.23 405.9 -61.79 410.73 -51.35 415.16 -40.91 419.03 -30.48 422.21 -20.04 424.56 -0.47 426.36 2.91 426.48 15.8 418.98 28.59 410.07 41.24 399.93 53.76 388.81 66.12 377 78.32 364.83 90.36 352.65 102.24 340.8 113.97 329.59 125.55 319.28 137 310.1 148.34 302.18 159.57 295.6 170.74 290.34 181.86 286.31 192.95 283.37 204.06 281.3 215.21 279.84 226.43 278.7 237.75 277.58 249.2 276.2 260.82 274.28 272.63 271.58 284.65 267.92 296.92 263.17 309.44 257.29 322.23 250.27 335.31 242.19 348.68 233.19 362.34 223.43 376.29 213.15 390.52 202.59 405.01 192 419.75 181.63 434.71 171.71 449.87 162.45 465.19 153.98 480.63 146.42 496.16 139.81 511.72 134.15 527.29 129.36 542.79 125.35 558.2 121.96 573.45 119 588.51 116.27 603.32 113.56 617.84 110.67 632.03 107.41 645.84 103.62 659.26 99.18 672.24 94 684.76 88.07 696.81 81.37 708.37 73.98 719.45 65.98 730.04 57.49 740.15 48.68 749.8 39.69 759.03 30.7 767.85 21.86 776.31 13.32 784.45 5.19 792.33 -2.42 800 -9.48 786.54 -26.29 774.44 -43.11 764.9 -59.92 758.89 -76.74 757 -93.55 759.43 -110.37 763.66 -135.32 746.92 -142.63 732.45 -141.59 717.99 -140.42 703.52 -139.21 689.05 -138.07 674.58 -137.09 660.12 -136.34 645.65 -135.89 631.18 -135.77 616.72 -136 602.25 -136.56 587.78 -137.4 573.32 -138.44 558.85 -139.62 544.38 -140.82 529.92 -141.96 515.45 -142.94 500.98 -143.68 486.52 -144.11 472.05 -144.21 457.58 -143.97 443.11 -143.4 428.65 -142.55 414.18 -141.5 399.71 -140.32 385.25 -139.12 370.78 -137.98 356.31 -137.02 341.85 -136.29 327.38 -135.87 312.91 -135.78 298.45 -136.04 283.98 -136.62 269.51 -137.47 255.05 -138.54 240.58 -139.72 226.11 -140.92 211.64 -142.05 197.18 -143.01 182.71 -143.72 168.24 -144.13 153.78 -144.21 139.31 -143.93 124.84 -143.34 110.38 -142.48 95.91 -141.41 81.44 -140.22 66.98 -139.02 52.51 -137.9 38.04 -136.95 23.58 -136.24 9.11 -135.85 -5.35 -135.79 -19.82 -136.07 -34.28 -136.68 -48.75 -137.55 -63.22 -138.63 -77.68 -139.82 -92.15 -141.02 -106.62 -142.13 -121.08 -143.08 -129.72 -130.82 -112.32 -113.43 -103.29 -105.27 -94.37 -96.93 -85.56 -88.42 -76.82 -79.78" fill="url(#uuunion-grad2)" filter="url(#uuunion-blur)"></path><path d="M835.93 374.87Q846.37 373.72 856.81 373.54 867.25 374.34 877.69 376.09 888.13 378.71 898.57 382.12 909 386.19 919.44 390.77 924.97 405.55 927.16 420.34 925.88 435.12 921.2 449.91 913.47 464.69 903.27 479.47 891.35 494.26 878.59 509.04 865.93 523.83 854.32 538.61 844.6 553.4 837.5 568.18 833.54 582.97 833.01 597.75 835.96 612.53 842.16 627.32 851.16 642.1 862.29 656.89 874.73 671.67 887.56 686.46 899.83 701.24 910.63 716.03 919.17 730.81 924.81 745.6 927.14 760.38 925.99 775.16 921.44 789.95 913.82 804.73 903.7 819.52 891.83 834.3 879.08 849.09 866.41 863.87 852.85 853.08 839.29 844.16 825.73 837.74 812.18 834.26 798.62 833.97 785.06 836.88 771.5 842.8 757.95 851.31 744.39 861.82 730.83 873.59 717.27 885.82 703.72 897.63 690.16 908.22 676.6 916.84 663.04 922.89 649.49 925.96 635.93 925.82 622.37 922.49 608.81 916.2 595.25 907.39 581.7 896.66 568.14 884.78 554.58 872.57 541.02 860.87 527.47 850.5 513.91 842.19 500.35 836.51 486.79 833.87 473.24 834.43 459.68 838.17 446.12 844.83 432.56 853.93 419.01 864.85 405.45 876.83 391.89 889.02 378.33 900.59 364.78 910.72 351.22 918.71 337.66 924.01 324.1 926.23 310.55 925.24 296.99 921.09 283.43 914.09 269.87 904.7 256.32 893.59 242.76 881.54 229.2 869.38 215.64 857.96 202.09 848.07 188.53 840.41 174.97 835.51 161.41 833.7 147.86 835.12 134.3 839.67 120.74 847.02 107.18 856.68 93.63 867.96 80.07 880.07 66.51 892.18 52.95 903.45 39.39 913.07 25.84 920.4 5.59 920.39 -0.93 905.46 -0.76 895.05 -0.6 884.64 -0.45 874.22 -0.32 863.81 0.09 848.2 0.91 843 14.08 835.26 27.27 825.16 40.46 812.96 53.62 799.01 66.72 783.78 79.75 767.81 92.67 751.65 105.48 735.87 118.14 721.02 130.64 707.58 142.97 695.95 155.12 686.4 167.08 679.1 178.85 674.09 190.43 671.25 201.84 670.38 213.07 671.12 224.15 673.07 235.08 675.74 245.91 678.6 256.64 681.13 267.31 682.83 277.95 683.26 288.6 682.05 299.28 678.94 310.04 673.77 320.91 666.51 331.92 657.25 343.11 646.19 354.51 633.62 366.16 619.94 378.08 605.59 390.29 591.03 402.82 576.76 415.68 563.21 428.89 550.81 442.44 539.88 456.34 530.68 470.59 523.34 485.17 517.9 500.07 514.28 515.26 512.31 530.71 511.7 546.4 512.13 562.28 513.18 578.31 514.43 594.45 515.45 610.65 515.82 626.84 515.17 642.99 513.21 659.03 509.7 674.91 504.52 690.57 497.64 705.96 489.11 721.03 479.1 735.73 467.86 750.02 455.68 763.86 442.93 777.21 429.98 790.05 417.23 802.35 405.04 814.1 393.75 830.61 379.25 835.93 374.87" fill="url(#uuunion-grad3)" filter="url(#uuunion-blur2)"></path></svg>