<?xml version="1.0" standalone="no"?>
<!DOCTYPE svg PUBLIC "-//W3C//DTD SVG 20010904//EN"
 "http://www.w3.org/TR/2001/REC-SVG-20010904/DTD/svg10.dtd">
<svg version="1.0" xmlns="http://www.w3.org/2000/svg"
 width="32.000000pt" height="32.000000pt" viewBox="0 0 32.000000 32.000000"
 preserveAspectRatio="xMidYMid meet">

<g transform="translate(0.000000,32.000000) scale(0.100000,-0.100000)"
fill="#000000" stroke="none">
<path d="M0 252 l0 -68 39 4 c37 4 40 2 43 -24 2 -15 9 -30 17 -32 10 -3 12 3
9 27 -2 17 -1 31 3 31 4 0 9 -16 11 -35 4 -33 2 -35 -24 -35 -21 0 -28 5 -28
20 0 18 -36 47 -47 37 -2 -3 5 -8 17 -12 31 -10 21 -40 -13 -40 -27 1 -27 0
-27 -62 l0 -63 160 0 160 0 0 58 0 58 -37 2 c-46 4 -56 10 -50 33 9 33 -11 31
-22 -2 -9 -27 -13 -30 -26 -19 -10 9 -15 9 -15 1 0 -23 -18 -10 -29 20 -13 38
-13 39 -3 39 5 0 14 -10 21 -22 l12 -23 -5 23 c-2 12 0 22 5 22 5 0 14 -10 19
-22 8 -21 15 -10 11 15 -1 5 18 7 41 5 37 -3 44 -7 48 -28 3 -14 11 -26 18
-27 9 -2 12 21 12 92 l0 95 -160 0 -160 0 0 -68z"/>
<path d="M0 155 c0 -8 2 -15 4 -15 2 0 11 -3 20 -6 23 -9 20 9 -4 24 -17 10
-20 10 -20 -3z"/>
<path d="M245 151 c-6 -11 9 -23 19 -14 9 9 7 23 -3 23 -6 0 -12 -4 -16 -9z"/>
</g>
</svg>
