<?xml version="1.0" encoding="UTF-8"?>
<svg version="1.1" xmlns="http://www.w3.org/2000/svg" width="500" height="500">
<path d="M0 0 C165 0 330 0 500 0 C500 165 500 330 500 500 C335 500 170 500 0 500 C0 335 0 170 0 0 Z " fill="#03989E" transform="translate(0,0)"/>
<path d="M0 0 C8.25 0 16.5 0 25 0 C25.01458252 2.43165527 25.02916504 4.86331055 25.04418945 7.36865234 C25.09468026 15.4313258 25.16130047 23.49380906 25.23571491 31.55629539 C25.28031259 36.44132185 25.31959176 41.32626694 25.34643555 46.21142578 C25.3725747 50.9318885 25.4130512 55.65203632 25.46318626 60.37230301 C25.47978352 62.16703987 25.49134203 63.96183111 25.49761391 65.75663376 C24.8337125 80.93830678 24.8337125 80.93830678 31 94 C32.98821313 94.39764263 34.98944339 94.73775349 37 95 C37 95.66 37 96.32 37 97 C35.95658447 97.05534912 34.91316895 97.11069824 33.83813477 97.16772461 C29.92978938 97.37573609 26.02163446 97.58715921 22.11352539 97.79956055 C20.42900438 97.89064624 18.74443451 97.98083329 17.05981445 98.07006836 C14.6243744 98.19923688 12.18913427 98.33174434 9.75390625 98.46484375 C9.01290176 98.50343002 8.27189728 98.5420163 7.50843811 98.58177185 C2.99792655 98.83211926 -1.47048981 99.23903419 -5.95600891 99.77679443 C-18.10980597 101.10399942 -30.39243345 100.47953147 -41 93.75 C-46.96101891 88.91314346 -49.72001898 82.43579161 -51 75 C-51.29086733 70.72386141 -51.30074195 66.45677661 -51.30859375 62.171875 C-51.33375725 59.65494564 -51.35915523 57.13801861 -51.38476562 54.62109375 C-51.41344393 50.68701809 -51.43748574 46.75298298 -51.45629883 42.81884766 C-51.47809886 38.99881204 -51.51754965 35.17924552 -51.55859375 31.359375 C-51.55876747 29.61971466 -51.55876747 29.61971466 -51.5589447 27.84490967 C-51.64769431 20.42987837 -52.08766779 12.91348742 -55 6 C-57.51787609 3.68288307 -59.8869004 2.5565498 -63 1 C-55.08 1 -47.16 1 -39 1 C-38.98541748 3.15901855 -38.97083496 5.31803711 -38.95581055 7.54248047 C-38.90528362 14.70710552 -38.83865753 21.87151736 -38.76428509 29.03593254 C-38.71971757 33.37614937 -38.68043216 37.71627527 -38.65356445 42.05664062 C-38.62739466 46.25193153 -38.58689765 50.44686994 -38.53681374 54.64194107 C-38.52023689 56.23571484 -38.50866581 57.82954946 -38.50238609 59.42339706 C-38.45406398 70.56909033 -38.23790289 81.29419611 -30.84155273 90.32324219 C-24.51229463 96.08611434 -16.14337977 96.59170058 -8 96.375 C-7.07960937 96.37371094 -6.15921875 96.37242187 -5.2109375 96.37109375 C1.06802421 96.29150128 6.86935607 95.30726966 13 94 C12.93858347 84.13297311 12.86133071 74.26620624 12.76428509 64.39946175 C12.71970328 59.81710724 12.68042082 55.23483914 12.65356445 50.65234375 C12.62740919 46.22364372 12.58692187 41.79527844 12.53681374 37.36678696 C12.52022722 35.68369612 12.50866209 34.00054749 12.50238609 32.31738663 C13.01118918 18.00495913 13.01118918 18.00495913 7.5957489 5.3196106 C5.30799824 3.42774652 2.82206037 2.81526188 0 2 C0 1.34 0 0.68 0 0 Z " fill="#F5FAFB" transform="translate(160,205)"/>
<path d="M0 0 C3.41248558 2.81229967 5.31828487 4.86283425 6.0546875 9.28125 C5.38937939 13.27309869 4.61428581 14.57741894 1.5546875 17.28125 C-5.79510203 20.56120926 -13.57349492 22.40494474 -21.3828125 24.21875 C-41.32819025 28.85779911 -41.32819025 28.85779911 -56.296875 42.03515625 C-61.8275008 51.87757326 -62.96793144 62.04119458 -60.9140625 73.15625 C-59.07320773 79.07900013 -56.3534564 83.36901823 -50.9453125 86.59375 C-45.04126165 89.29242996 -38.29023829 89.48359301 -32.109375 87.55078125 C-30.0837259 86.60004556 -28.29234694 85.54172621 -26.4453125 84.28125 C-25.4140625 83.58 -24.3828125 82.87875 -23.3203125 82.15625 C-16.13529925 75.73269196 -12.98167466 66.29686459 -10.4453125 57.28125 C-10.08179688 56.05277344 -9.71828125 54.82429688 -9.34375 53.55859375 C-8.1476918 48.6981642 -8.22478425 43.94724174 -8.3203125 38.96875 C-8.32933594 38.07607422 -8.33835937 37.18339844 -8.34765625 36.26367188 C-8.36497814 34.6193292 -8.38643694 32.97502053 -8.41357422 31.33081055 C-8.43963644 29.64779223 -8.4453125 27.9644701 -8.4453125 26.28125 C-4.15658157 25.86078618 -2.13520869 25.7599951 1.3671875 28.40625 C5.81157246 34.24744166 5.84629141 39.98031837 5.86328125 47.02734375 C5.88843643 48.93554999 5.91383453 50.84375305 5.93945312 52.75195312 C5.96818505 55.73835454 5.99222488 58.72470076 6.01098633 61.71118164 C6.03271337 64.60851883 6.07214946 67.50522637 6.11328125 70.40234375 C6.11345497 71.73077553 6.11345497 71.73077553 6.1136322 73.08604431 C6.20010912 78.53833374 6.8614574 82.49228016 9.5546875 87.28125 C12.60649819 88.80098152 12.60649819 88.80098152 15.5546875 89.28125 C15.5546875 89.94125 15.5546875 90.60125 15.5546875 91.28125 C13.49285117 91.36275744 11.43007401 91.4206694 9.3671875 91.46875 C7.64435547 91.52095703 7.64435547 91.52095703 5.88671875 91.57421875 C2.09811448 91.24110583 0.47511157 90.70102995 -2.4453125 88.28125 C-7.30145999 82.11059363 -7.09978209 75.98184048 -7.1953125 68.34375 C-7.22496094 67.18294922 -7.25460937 66.02214844 -7.28515625 64.82617188 C-7.35548651 61.9777962 -7.40836664 59.13022163 -7.4453125 56.28125 C-7.67605469 57.10367188 -7.90679687 57.92609375 -8.14453125 58.7734375 C-11.76447387 71.16422925 -16.40324114 83.57742275 -27.9453125 90.71875 C-36.86105424 94.69899185 -46.27089174 96.06948355 -55.6328125 92.71875 C-63.8110963 89.03917239 -69.49633655 83.11509372 -73.5234375 75.1484375 C-75.95722101 67.57895829 -75.89906842 56.5350735 -72.8828125 49.15625 C-71.7578125 47.15625 -71.7578125 47.15625 -70.4453125 45.28125 C-69.73375 44.2603125 -69.73375 44.2603125 -69.0078125 43.21875 C-59.65319016 31.34557549 -45.76328203 27.50585211 -31.76953125 23.74609375 C-30.78637939 23.4819165 -29.80322754 23.21773926 -28.7902832 22.94555664 C-26.84476163 22.42851009 -24.89672313 21.92082218 -22.94604492 21.42358398 C-18.29266169 20.20764757 -14.48824918 18.98186778 -10.4453125 16.28125 C-9.7853125 16.28125 -9.1253125 16.28125 -8.4453125 16.28125 C-6.76369334 11.23639252 -6.45445982 6.30799411 -8.8203125 1.46875 C-17.69650546 -5.92807746 -28.44872128 -5.70459601 -39.4453125 -4.71875 C-44.37601719 -3.93783996 -47.96521902 -2.61456221 -51.4453125 1.03125 C-53.66840343 4.64377277 -54.36556037 7.05438693 -54.4453125 11.28125 C-52.72304754 14.52974977 -52.72304754 14.52974977 -49.4453125 15.28125 C-49.79083638 17.83812669 -50.19618263 19.85626375 -51.5078125 22.09375 C-54.67899816 24.03737992 -57.90645659 24.03317065 -61.4453125 23.28125 C-64.66485895 20.74671343 -66.14963685 19.16827695 -67.4453125 15.28125 C-67.98682435 9.54122435 -67.11480506 6.72326731 -63.4453125 2.28125 C-48.8216279 -12.69910984 -16.33830047 -11.49991965 0 0 Z " fill="#F7FBFB" transform="translate(435.4453125,210.71875)"/>
<path d="M0 0 C1.26457031 0.01015137 1.26457031 0.01015137 2.5546875 0.02050781 C13.43305168 0.20125343 23.16775628 2.6048361 32.9921875 7.3671875 C35.67210078 10.34349672 35.10934291 13.65365133 34.9375 17.4375 C34.91945313 18.18708984 34.90140625 18.93667969 34.8828125 19.70898438 C34.83574109 21.5565371 34.76399766 23.40343159 34.6875 25.25 C32.60450407 22.54210529 30.74633056 19.77116129 28.9375 16.875 C24.68649002 10.52459689 19.95426654 5.87726251 12.4765625 3.71875 C3.62640158 2.231328 -6.29698942 1.87790332 -14.3125 6.25 C-18.26576868 9.06699984 -21.49085545 11.64840499 -23.3125 16.25 C-24.08967487 21.80124908 -23.68573253 26.65013746 -20.3125 31.25 C-12.12058658 38.54416948 -1.11346154 41.16033302 9.1875 44.125 C19.33207532 47.19196463 30.91495199 51.74601597 37.3671875 60.5390625 C40.9971242 67.63286036 42.21930241 73.99461407 39.953125 81.76953125 C36.74662403 89.69379388 31.14232138 94.37563047 23.6875 98.25 C7.81842041 104.75901231 -11.33229502 104.06098363 -27.3125 98.25 C-29.6225 96.93 -31.9325 95.61 -34.3125 94.25 C-34.3125 88.64 -34.3125 83.03 -34.3125 77.25 C-33.6525 77.25 -32.9925 77.25 -32.3125 77.25 C-31.920625 78.44625 -31.52875 79.6425 -31.125 80.875 C-27.53552009 90.22740636 -20.63625293 94.1406464 -11.9609375 98.40625 C-8.53732243 99.49695923 -5.52658309 99.51456017 -1.9375 99.5 C-0.67164063 99.50515625 0.59421875 99.5103125 1.8984375 99.515625 C9.19582841 99.00405533 17.23125199 96.82069331 22.45703125 91.421875 C27.12622416 85.46893805 29.49781861 79.94802683 28.6875 72.25 C25.96322758 65.19165782 21.31515173 62.54120769 14.6875 59.25 C9.08431731 57.12209474 3.36649399 55.38626139 -2.36547852 53.64550781 C-13.46038929 50.24768284 -23.67475532 46.32631405 -30.3125 36.25 C-33.29604184 30.19000324 -33.1185442 23.84490706 -32.3125 17.25 C-29.83570493 10.50219611 -25.05729347 6.91410164 -18.97265625 3.44140625 C-12.59549297 0.58526117 -6.87482922 -0.07949364 0 0 Z " fill="#F6FBFB" transform="translate(45.3125,202.75)"/>
<path d="M0 0 C3.20784721 -0.14622024 6.41482961 -0.23436651 9.625 -0.3125 C10.98044922 -0.3753418 10.98044922 -0.3753418 12.36328125 -0.43945312 C16.68273471 -0.51827527 19.97473226 -0.54954104 23.48828125 2.16015625 C26.03537335 5.03999444 27.29681186 7.14442345 28.5625 10.75 C29.17158203 12.47863281 29.17158203 12.47863281 29.79296875 14.2421875 C31.49547996 19.5425622 33.09016982 24.86699823 34.62109375 30.21875 C37.01141133 38.56287552 39.57836663 46.85500742 42.12695312 55.15185547 C42.69874543 57.01721594 43.26785862 58.88340024 43.83398438 60.75048828 C44.61174879 63.31494516 45.3984946 65.87648279 46.1875 68.4375 C46.41300537 69.18757324 46.63851074 69.93764648 46.87084961 70.71044922 C49.63770774 79.95595113 49.63770774 79.95595113 55.75 87 C56.4925 87.33 57.235 87.66 58 88 C58.25974609 86.74316406 58.51949219 85.48632812 58.78710938 84.19140625 C60.01647372 78.66976719 61.68606364 73.32295348 63.40625 67.9375 C63.73161743 66.90616943 64.05698486 65.87483887 64.39221191 64.81225586 C65.77260574 60.43717386 67.16184925 56.06491549 68.55029297 51.69238281 C69.56786082 48.48338773 70.5808959 45.2729854 71.59375 42.0625 C72.06101501 40.59961548 72.06101501 40.59961548 72.53771973 39.10717773 C75.02177108 31.23085087 77.28207719 23.56556771 77.3125 15.25 C77.33763672 13.64898437 77.33763672 13.64898437 77.36328125 12.015625 C76.95337314 8.61294692 76.00476358 6.75163628 74 4 C70.91318392 1.87116133 67.67235389 1.50077553 64 1 C64 0.67 64 0.34 64 0 C75.55 0 87.1 0 99 0 C99 0.33 99 0.66 99 1 C97.6696875 1.37125 97.6696875 1.37125 96.3125 1.75 C88.74416216 4.60597654 86.02521374 9.85928383 82.75390625 16.85546875 C79.47871824 24.33062479 77.26675199 32.17424189 75 40 C74.71092773 40.99547852 74.42185547 41.99095703 74.12402344 43.01660156 C73.82270508 44.05526367 73.52138672 45.09392578 73.2109375 46.1640625 C72.90542969 47.21609863 72.59992188 48.26813477 72.28515625 49.35205078 C71.69652046 51.38796007 71.11284572 53.42531314 70.53515625 55.46435547 C68.87786543 61.25407345 66.99863039 66.90374503 64.90136719 72.54882812 C61.72677455 81.18179401 59.35064789 90.11383864 57 99 C51.26805043 98.88058438 48.06728564 97.27699676 43.9140625 93.32421875 C37.52788519 85.56957488 34.97576912 75.26363526 32.15234375 65.78515625 C31.17585776 62.57764803 30.11168032 59.45126219 28.9375 56.3125 C26.68867964 50.29116874 24.84008919 44.15646863 23 38 C22.01 40.31 21.02 42.62 20 45 C19.67 45 19.34 45 19 45 C19.144375 43.845 19.28875 42.69 19.4375 41.5 C19.52128906 40.75878906 19.60507812 40.01757812 19.69140625 39.25390625 C20 37 20 37 20.875 33.4375 C22.01738155 24.24404844 16.11923981 13.44926916 11.52734375 5.85546875 C8.42069441 2.08140625 4.68003093 1.63818604 0 1 C0 0.67 0 0.34 0 0 Z " fill="#F8FCFC" transform="translate(253,206)"/>
<path d="M0 0 C3.22886009 -0.11667875 6.45717445 -0.18740546 9.6875 -0.25 C11.05551758 -0.30027344 11.05551758 -0.30027344 12.45117188 -0.3515625 C16.61061565 -0.4120635 19.26829594 -0.40596527 22.95703125 1.640625 C27.61843379 7.0239656 29.303391 13.63277075 31.375 20.3125 C31.6853418 21.29887451 31.99568359 22.28524902 32.31542969 23.30151367 C34.03210369 28.78642053 35.67269263 34.28616761 37.25 39.8125 C39.59863074 47.91682802 42.1576145 55.95713683 44.76599121 63.98104858 C45.25185538 65.48294093 45.73248814 66.98653662 46.2076416 68.49185181 C46.88408529 70.62987797 47.5802477 72.76054353 48.28125 74.890625 C48.68408203 76.13875977 49.08691406 77.38689453 49.50195312 78.67285156 C51.39352429 82.87401386 53.82926941 85.9146347 58 88 C58.21398437 86.70320313 58.42796875 85.40640625 58.6484375 84.0703125 C60.23801365 76.12243177 63.01447733 68.53209422 65.625 60.875 C66.14639495 59.33091869 66.66723277 57.78664915 67.1875 56.2421875 C68.45192212 52.49259099 69.72385125 48.74562082 71 45 C71.99121164 48.09149239 71.98989438 49.93833805 71.03125 53.02734375 C70.79317627 53.80940186 70.55510254 54.59145996 70.30981445 55.3972168 C70.04257568 56.23551025 69.77533691 57.07380371 69.5 57.9375 C69.22953857 58.81124268 68.95907715 59.68498535 68.68041992 60.58520508 C65.85500455 69.63668547 62.8486219 78.63005346 59.80712891 87.61083984 C58.52596301 91.40318391 57.26274357 95.20148914 56 99 C50.69892047 98.86747301 47.92730276 96.7186344 44.02734375 93.47265625 C37.44396541 85.44321793 34.73073463 74.91155804 31.5625 65.1875 C31.0755261 63.71104483 30.58838263 62.23464558 30.10107422 60.75830078 C26.91756905 51.06220789 23.99832737 41.31221137 21.26171875 31.48046875 C17.70395939 15.20819886 17.70395939 15.20819886 8.05078125 2.83984375 C5.412079 1.75923235 2.81595338 1.38399364 0 1 C0 0.67 0 0.34 0 0 Z " fill="#F8FCFC" transform="translate(200,206)"/>
<path d="M0 0 C11.55 0 23.1 0 35 0 C35 0.33 35 0.66 35 1 C34.113125 1.2475 33.22625 1.495 32.3125 1.75 C24.74416216 4.60597654 22.02521374 9.85928383 18.75390625 16.85546875 C15.47871824 24.33062479 13.26675199 32.17424189 11 40 C10.71092773 40.99547852 10.42185547 41.99095703 10.12402344 43.01660156 C9.6720459 44.57459473 9.6720459 44.57459473 9.2109375 46.1640625 C8.90542969 47.21609863 8.59992188 48.26813477 8.28515625 49.35205078 C7.69652046 51.38796007 7.11284572 53.42531314 6.53515625 55.46435547 C4.88232799 61.23848357 3.00709788 66.8710434 0.91455078 72.50048828 C-0.25669257 75.70155326 -1.26734794 78.92369138 -2.25 82.1875 C-2.58515625 83.29480469 -2.9203125 84.40210938 -3.265625 85.54296875 C-3.50796875 86.35378906 -3.7503125 87.16460937 -4 88 C-4.66 87.67 -5.32 87.34 -6 87 C-3.97912991 79.40854649 -1.78476043 71.88663343 0.5390625 64.3828125 C1.2083637 62.20834268 1.87763364 60.03386324 2.546875 57.859375 C3.59069514 54.47534562 4.63532826 51.0915693 5.68066406 47.70800781 C6.69802659 44.41274115 7.71243202 41.116575 8.7265625 37.8203125 C9.04009674 36.80881134 9.35363098 35.79731018 9.67666626 34.75515747 C9.96721893 33.81002289 10.25777161 32.86488831 10.55712891 31.89111328 C10.93993515 30.65181564 10.93993515 30.65181564 11.33047485 29.38748169 C12.64176222 24.71151904 13.1818868 20.3587415 13.25 15.5 C13.27578125 14.3965625 13.3015625 13.293125 13.328125 12.15625 C12.96331091 8.64708585 12.074562 6.82018697 10 4 C6.91318392 1.87116133 3.67235389 1.50077553 0 1 C0 0.67 0 0.34 0 0 Z " fill="#F7FCFC" transform="translate(317,206)"/>
<path d="M0 0 C2.92787536 2.92787536 3.51491992 6.46159328 4.70703125 10.37109375 C6.31450762 13.63946716 7.72301803 14.4912429 11 16 C13.42095205 16.76305262 13.42095205 16.76305262 15.8125 17.1875 C16.60269531 17.34605469 17.39289063 17.50460937 18.20703125 17.66796875 C18.79871094 17.77753906 19.39039063 17.88710938 20 18 C18 20 18 20 14.1875 20.875 C9.60067821 21.94054118 6.44892204 23.78848741 3.8125 27.8125 C2.69237663 30.82821677 1.83595188 33.89503586 1 37 C-1 34 -1 34 -1.875 30.5625 C-3.09370097 26.70328027 -3.93769317 25.53130076 -7 23 C-10.0137392 21.67502081 -10.0137392 21.67502081 -13.25 20.75 C-14.86648438 20.24726563 -14.86648438 20.24726563 -16.515625 19.734375 C-17.33546875 19.49203125 -18.1553125 19.2496875 -19 19 C-19 18.67 -19 18.34 -19 18 C-18.26394531 17.84144531 -17.52789062 17.68289063 -16.76953125 17.51953125 C-8.72952134 15.65564252 -8.72952134 15.65564252 -3 10 C-1.76562627 6.7150544 -0.8148133 3.41161665 0 0 Z " fill="#F1F9F9" transform="translate(475,283)"/>
<path d="M0 0 C0 0.66 0 1.32 0 2 C-0.9075 2.5775 -1.815 3.155 -2.75 3.75 C-6.34194895 6.23673389 -8.08007366 8.08335027 -10 12 C-10.18380366 15.71936606 -10.18380366 15.71936606 -9 19 C-7.06402968 20.51294288 -7.06402968 20.51294288 -5 21 C-5.34552388 23.55687669 -5.75087013 25.57501375 -7.0625 27.8125 C-10.23368566 29.75612992 -13.46114409 29.75192065 -17 29 C-20.21954645 26.46546343 -21.70432435 24.88702695 -23 21 C-23.54151185 15.25997435 -22.66949256 12.44201731 -19 8 C-13.39011733 2.63944545 -7.90963507 -0.57875379 0 0 Z " fill="#F3FAFA" transform="translate(391,205)"/>
<path d="M0 0 C0.66 0 1.32 0 2 0 C2.391875 1.19625 2.78375 2.3925 3.1875 3.625 C6.7614997 12.9370726 13.59747178 16.83798081 22.23046875 21.1015625 C26.20046922 22.38943289 30.17069041 22.72618329 34.3125 23.125 C35.14845703 23.21136719 35.98441406 23.29773438 36.84570312 23.38671875 C38.8964763 23.59765542 40.94815903 23.79971646 43 24 C43 24.33 43 24.66 43 25 C27.18964832 25.58316871 14.06206223 25.03546413 0 17 C0 11.39 0 5.78 0 0 Z " fill="#E5F4F5" transform="translate(11,280)"/>
<path d="M0 0 C2.67991328 2.97630922 2.11715541 6.28646383 1.9453125 10.0703125 C1.92726562 10.81990234 1.90921875 11.56949219 1.890625 12.34179688 C1.84355359 14.1893496 1.77181016 16.03624409 1.6953125 17.8828125 C-0.38768343 15.17491779 -2.24585694 12.40397379 -4.0546875 9.5078125 C-8.31032445 3.15049735 -13.03501956 -1.46331263 -20.50390625 -3.65625 C-28.12722687 -4.91085507 -36.78307496 -4.92470679 -44.3046875 -3.1171875 C-44.3046875 -3.7771875 -44.3046875 -4.4371875 -44.3046875 -5.1171875 C-44.9646875 -5.4471875 -45.6246875 -5.7771875 -46.3046875 -6.1171875 C-31.36445831 -10.32555495 -13.62338921 -6.60388019 0 0 Z " fill="#F5FBFB" transform="translate(78.3046875,210.1171875)"/>
<path d="M0 0 C2 3 2 3 1.80322266 4.88745117 C1.48683838 5.95443237 1.48683838 5.95443237 1.1640625 7.04296875 C0.92800293 7.85765625 0.69194336 8.67234375 0.44873047 9.51171875 C0.17689941 10.39472656 -0.09493164 11.27773437 -0.375 12.1875 C-0.64812012 13.10789063 -0.92124023 14.02828125 -1.20263672 14.9765625 C-3.98572122 24.22764095 -7.06767869 33.38133801 -10.1640625 42.53125 C-12.23162269 48.651734 -14.1613466 54.80664118 -16 61 C-16.66 60.67 -17.32 60.34 -18 60 C-15.9625383 52.35212125 -13.75531039 44.77067485 -11.42578125 37.20703125 C-11.09708542 36.13498947 -10.76838959 35.06294769 -10.42973328 33.9584198 C-9.39224895 30.57595506 -8.35241621 27.19421777 -7.3125 23.8125 C-6.60335942 21.50200106 -5.8943736 19.19145462 -5.18554688 16.88085938 C-3.45881854 11.25335627 -1.73016798 5.62644649 0 0 Z " fill="#C4E7E8" transform="translate(329,233)"/>
<path d="M0 0 C1.00830493 3.12465167 0.97500097 4.97822451 -0.00390625 8.09765625 C-0.24737793 8.89075195 -0.49084961 9.68384766 -0.74169922 10.50097656 C-1.01256348 11.3462793 -1.28342773 12.19158203 -1.5625 13.0625 C-1.83336426 13.93487305 -2.10422852 14.80724609 -2.38330078 15.70605469 C-3.24547888 18.47396938 -4.12208217 21.23704168 -5 24 C-5.58009149 25.84744776 -6.1595299 27.69510072 -6.73828125 29.54296875 C-8.14734146 34.03235783 -9.56998096 38.51724529 -11 43 C-11.66 42.67 -12.32 42.34 -13 42 C-10.83753477 32.54798814 -7.92711044 23.41828256 -4.8125 14.25 C-4.34397522 12.85951841 -3.87587373 11.46889412 -3.40820312 10.078125 C-2.27699426 6.71709624 -1.14012633 3.35801584 0 0 Z " fill="#C1E5E7" transform="translate(271,251)"/>
<path d="M0 0 C0.81275391 -0.00128906 1.62550781 -0.00257813 2.46289062 -0.00390625 C3.72456055 0.00189453 3.72456055 0.00189453 5.01171875 0.0078125 C5.84123047 0.00394531 6.67074219 0.00007812 7.52539062 -0.00390625 C12.35587781 0.00371883 16.93644423 0.32294801 21.69921875 1.1328125 C21.36921875 2.1228125 21.03921875 3.1128125 20.69921875 4.1328125 C19.87550781 3.97039062 19.05179688 3.80796875 18.203125 3.640625 C14.32702753 3.07887174 10.54240716 2.98593189 6.63671875 3.0078125 C5.94255859 3.00394531 5.24839844 3.00007812 4.53320312 2.99609375 C0.79588504 3.00319217 -2.66789019 3.24052347 -6.30078125 4.1328125 C-6.30078125 3.4728125 -6.30078125 2.8128125 -6.30078125 2.1328125 C-6.96078125 1.8028125 -7.62078125 1.4728125 -8.30078125 1.1328125 C-5.46596092 0.32766116 -2.94367288 0.00454521 0 0 Z " fill="#BAE2E4" transform="translate(40.30078125,202.8671875)"/>
<path d="M0 0 C0.88494141 -0.00386719 1.76988281 -0.00773438 2.68164062 -0.01171875 C6.89154523 -0.00540231 10.83499181 0.0503305 14.9375 1.125 C11.70992649 3.27671567 10.92780124 3.36004094 7.2265625 3.28515625 C6.31132812 3.27419922 5.39609375 3.26324219 4.453125 3.25195312 C3.49921875 3.23068359 2.5453125 3.20941406 1.5625 3.1875 C-0.32023224 3.15287209 -2.20305444 3.12277899 -4.0859375 3.09765625 C-4.92044434 3.07968994 -5.75495117 3.06172363 -6.61474609 3.04321289 C-9.19432098 3.12940455 -11.549559 3.55295978 -14.0625 4.125 C-14.0625 3.465 -14.0625 2.805 -14.0625 2.125 C-14.7225 1.795 -15.3825 1.465 -16.0625 1.125 C-10.68084524 0.0078855 -5.46799251 -0.02399997 0 0 Z " fill="#D4EDEE" transform="translate(405.0625,202.875)"/>
<path d="M0 0 C1.77583935 2.61636118 2.05013398 3.71318697 1.49609375 6.8828125 C-0.80342557 13.92562075 -3.42270254 20.50515255 -7 27 C-7.99 27 -8.98 27 -10 27 C-9.72027344 26.443125 -9.44054687 25.88625 -9.15234375 25.3125 C-8.77207031 24.549375 -8.39179688 23.78625 -8 23 C-7.60941406 22.21625 -7.21882813 21.4325 -6.81640625 20.625 C-3.60350366 13.89892354 -1.56296431 7.28112643 0 0 Z " fill="#C9E9EA" transform="translate(426,263)"/>
<path d="M0 0 C0 0.33 0 0.66 0 1 C-1.12277344 1.25394531 -2.24554688 1.50789062 -3.40234375 1.76953125 C-11.0688698 3.52510668 -18.59650728 5.30782083 -26 8 C-26 7.34 -26 6.68 -26 6 C-26.66 5.67 -27.32 5.34 -28 5 C-24.2755549 3.96137966 -20.54485965 2.94727457 -16.8125 1.9375 C-15.22985352 1.49567383 -15.22985352 1.49567383 -13.61523438 1.04492188 C-12.59365234 0.77099609 -11.57207031 0.49707031 -10.51953125 0.21484375 C-9.58214111 -0.04176025 -8.64475098 -0.29836426 -7.67895508 -0.56274414 C-4.80368872 -1.03204169 -2.79575648 -0.74716093 0 0 Z " fill="#BFE5E6" transform="translate(419,233)"/>
<path d="M0 0 C0.69738281 0.00451172 1.39476562 0.00902344 2.11328125 0.01367188 C3.82555803 0.0253998 5.53779033 0.04333347 7.25 0.0625 C7.25 0.3925 7.25 0.7225 7.25 1.0625 C6.03763672 1.26166016 6.03763672 1.26166016 4.80078125 1.46484375 C3.73214844 1.64144531 2.66351563 1.81804687 1.5625 2 C0.50675781 2.17402344 -0.54898438 2.34804687 -1.63671875 2.52734375 C-4.35249604 2.99417121 -7.05124235 3.50672616 -9.75 4.0625 C-9.75 3.4025 -9.75 2.7425 -9.75 2.0625 C-10.41 1.7325 -11.07 1.4025 -11.75 1.0625 C-7.88276369 -0.20332219 -4.01848738 -0.0493765 0 0 Z " fill="#D7EEEF" transform="translate(43.75,202.9375)"/>
<path d="M0 0 C-3.12343663 2.08229108 -3.53852922 2.23770457 -7.01171875 1.9765625 C-7.76904297 1.925 -8.52636719 1.8734375 -9.30664062 1.8203125 C-10.48516602 1.72363281 -10.48516602 1.72363281 -11.6875 1.625 C-12.48478516 1.56828125 -13.28207031 1.5115625 -14.10351562 1.453125 C-16.06973581 1.31183972 -18.03498824 1.15720094 -20 1 C-20 0.67 -20 0.34 -20 0 C-13.14011227 -0.94870788 -6.85988773 -0.94870788 0 0 Z " fill="#AADCDE" transform="translate(420,204)"/>
<path d="M0 0 C-1 2 -1 2 -4.0625 3.125 C-5.5165625 3.558125 -5.5165625 3.558125 -7 4 C-7 3.34 -7 2.68 -7 2 C-7.66 1.67 -8.32 1.34 -9 1 C-5.92677456 0.08941469 -3.19902639 -0.08886184 0 0 Z " fill="#D6EEEF" transform="translate(400,237)"/>
</svg>
