<svg xmlns="http://www.w3.org/2000/svg" version="1.1" xmlns:xlink="http://www.w3.org/1999/xlink" xmlns:svgjs="http://svgjs.dev/svgjs" viewBox="0 0 800 800" opacity="0.32" width="800" height="800"><g stroke-width="2.5" stroke="#03989e" fill="none"><circle r="3.026315789473684" cx="0" cy="0" fill="#03989e" stroke="none"></circle><circle r="3.026315789473684" cx="160" cy="0" fill="#03989e" stroke="none"></circle><circle r="3.026315789473684" cx="320" cy="0" fill="#03989e" stroke="none"></circle><circle r="3.026315789473684" cx="480" cy="0" fill="#03989e" stroke="none"></circle><circle r="3.026315789473684" cx="640" cy="0" fill="#03989e" stroke="none"></circle><circle r="3.026315789473684" cx="800" cy="0" fill="#03989e" stroke="none"></circle><circle r="3.026315789473684" cx="0" cy="88.88888888888889" fill="#03989e" stroke="none"></circle><circle r="3.026315789473684" cx="160" cy="88.88888888888889" fill="#03989e" stroke="none"></circle><circle r="3.026315789473684" cx="320" cy="88.88888888888889" fill="#03989e" stroke="none"></circle><circle r="3.026315789473684" cx="480" cy="88.88888888888889" fill="#03989e" stroke="none"></circle><circle r="3.026315789473684" cx="640" cy="88.88888888888889" fill="#03989e" stroke="none"></circle><circle r="3.026315789473684" cx="800" cy="88.88888888888889" fill="#03989e" stroke="none"></circle><circle r="3.026315789473684" cx="0" cy="177.77777777777777" fill="#03989e" stroke="none"></circle><circle r="3.026315789473684" cx="160" cy="177.77777777777777" fill="#03989e" stroke="none"></circle><circle r="3.026315789473684" cx="320" cy="177.77777777777777" fill="#03989e" stroke="none"></circle><circle r="3.026315789473684" cx="480" cy="177.77777777777777" fill="#03989e" stroke="none"></circle><circle r="3.026315789473684" cx="640" cy="177.77777777777777" fill="#03989e" stroke="none"></circle><circle r="3.026315789473684" cx="800" cy="177.77777777777777" fill="#03989e" stroke="none"></circle><circle r="3.026315789473684" cx="0" cy="266.66666666666663" fill="#03989e" stroke="none"></circle><circle r="3.026315789473684" cx="160" cy="266.66666666666663" fill="#03989e" stroke="none"></circle><circle r="3.026315789473684" cx="320" cy="266.66666666666663" fill="#03989e" stroke="none"></circle><circle r="3.026315789473684" cx="480" cy="266.66666666666663" fill="#03989e" stroke="none"></circle><circle r="3.026315789473684" cx="640" cy="266.66666666666663" fill="#03989e" stroke="none"></circle><circle r="3.026315789473684" cx="800" cy="266.66666666666663" fill="#03989e" stroke="none"></circle><circle r="3.026315789473684" cx="0" cy="355.55555555555554" fill="#03989e" stroke="none"></circle><circle r="3.026315789473684" cx="160" cy="355.55555555555554" fill="#03989e" stroke="none"></circle><circle r="3.026315789473684" cx="320" cy="355.55555555555554" fill="#03989e" stroke="none"></circle><circle r="3.026315789473684" cx="480" cy="355.55555555555554" fill="#03989e" stroke="none"></circle><circle r="3.026315789473684" cx="640" cy="355.55555555555554" fill="#03989e" stroke="none"></circle><circle r="3.026315789473684" cx="800" cy="355.55555555555554" fill="#03989e" stroke="none"></circle><circle r="3.026315789473684" cx="0" cy="444.44444444444446" fill="#03989e" stroke="none"></circle><circle r="3.026315789473684" cx="160" cy="444.44444444444446" fill="#03989e" stroke="none"></circle><circle r="3.026315789473684" cx="320" cy="444.44444444444446" fill="#03989e" stroke="none"></circle><circle r="3.026315789473684" cx="480" cy="444.44444444444446" fill="#03989e" stroke="none"></circle><circle r="3.026315789473684" cx="640" cy="444.44444444444446" fill="#03989e" stroke="none"></circle><circle r="3.026315789473684" cx="800" cy="444.44444444444446" fill="#03989e" stroke="none"></circle><circle r="3.026315789473684" cx="0" cy="533.3333333333334" fill="#03989e" stroke="none"></circle><circle r="3.026315789473684" cx="160" cy="533.3333333333334" fill="#03989e" stroke="none"></circle><circle r="3.026315789473684" cx="320" cy="533.3333333333334" fill="#03989e" stroke="none"></circle><circle r="3.026315789473684" cx="480" cy="533.3333333333334" fill="#03989e" stroke="none"></circle><circle r="3.026315789473684" cx="640" cy="533.3333333333334" fill="#03989e" stroke="none"></circle><circle r="3.026315789473684" cx="800" cy="533.3333333333334" fill="#03989e" stroke="none"></circle><circle r="3.026315789473684" cx="0" cy="622.2222222222223" fill="#03989e" stroke="none"></circle><circle r="3.026315789473684" cx="160" cy="622.2222222222223" fill="#03989e" stroke="none"></circle><circle r="3.026315789473684" cx="320" cy="622.2222222222223" fill="#03989e" stroke="none"></circle><circle r="3.026315789473684" cx="480" cy="622.2222222222223" fill="#03989e" stroke="none"></circle><circle r="3.026315789473684" cx="640" cy="622.2222222222223" fill="#03989e" stroke="none"></circle><circle r="3.026315789473684" cx="800" cy="622.2222222222223" fill="#03989e" stroke="none"></circle><circle r="3.026315789473684" cx="0" cy="711.1111111111112" fill="#03989e" stroke="none"></circle><circle r="3.026315789473684" cx="160" cy="711.1111111111112" fill="#03989e" stroke="none"></circle><circle r="3.026315789473684" cx="320" cy="711.1111111111112" fill="#03989e" stroke="none"></circle><circle r="3.026315789473684" cx="480" cy="711.1111111111112" fill="#03989e" stroke="none"></circle><circle r="3.026315789473684" cx="640" cy="711.1111111111112" fill="#03989e" stroke="none"></circle><circle r="3.026315789473684" cx="800" cy="711.1111111111112" fill="#03989e" stroke="none"></circle><circle r="3.026315789473684" cx="0" cy="800.0000000000001" fill="#03989e" stroke="none"></circle><circle r="3.026315789473684" cx="160" cy="800.0000000000001" fill="#03989e" stroke="none"></circle><circle r="3.026315789473684" cx="320" cy="800.0000000000001" fill="#03989e" stroke="none"></circle><circle r="3.026315789473684" cx="480" cy="800.0000000000001" fill="#03989e" stroke="none"></circle><circle r="3.026315789473684" cx="640" cy="800.0000000000001" fill="#03989e" stroke="none"></circle><circle r="3.026315789473684" cx="800" cy="800.0000000000001" fill="#03989e" stroke="none"></circle></g></svg>